<?xml version="1.0" encoding="UTF-8" standalone="no"?>
<!-- Created with Inkscape (http://www.inkscape.org/) -->

<svg
   xmlns:dc="http://purl.org/dc/elements/1.1/"
   xmlns:cc="http://creativecommons.org/ns#"
   xmlns:rdf="http://www.w3.org/1999/02/22-rdf-syntax-ns#"
   xmlns:svg="http://www.w3.org/2000/svg"
   xmlns="http://www.w3.org/2000/svg"
   xmlns:sodipodi="http://sodipodi.sourceforge.net/DTD/sodipodi-0.dtd"
   xmlns:inkscape="http://www.inkscape.org/namespaces/inkscape"
   width="1000"
   height="300"
   id="svg2"
   version="1.1"
   inkscape:version="0.48.4 r9939"
   sodipodi:docname="New document 1">
  <defs
     id="defs4" />
  <sodipodi:namedview
     id="base"
     pagecolor="#ffffff"
     bordercolor="#666666"
     borderopacity="1.0"
     inkscape:pageopacity="0.0"
     inkscape:pageshadow="2"
     inkscape:zoom="0.98994949"
     inkscape:cx="365.06073"
     inkscape:cy="321.39286"
     inkscape:document-units="px"
     inkscape:current-layer="layer1"
     showgrid="false"
     inkscape:window-width="1855"
     inkscape:window-height="1176"
     inkscape:window-x="65"
     inkscape:window-y="24"
     inkscape:window-maximized="1" />
  <metadata
     id="metadata7">
    <rdf:RDF>
      <cc:Work
         rdf:about="">
        <dc:format>image/svg+xml</dc:format>
        <dc:type
           rdf:resource="http://purl.org/dc/dcmitype/StillImage" />
        <dc:title></dc:title>
      </cc:Work>
    </rdf:RDF>
  </metadata>
  <g
     inkscape:label="Layer 1"
     inkscape:groupmode="layer"
     id="layer1"
     transform="translate(0,-752.36218)">
    <flowRoot
       xml:space="preserve"
       id="flowRoot2985"
       style="font-size:200px;font-style:normal;font-variant:normal;font-weight:bold;font-stretch:normal;line-height:125%;letter-spacing:0px;word-spacing:0px;fill:#000000;fill-opacity:1;stroke:none;font-family:Simpsonfont;-inkscape-font-specification:Simpsonfont Bold"
       transform="translate(118.41553,502.67715)"><flowRegion
         id="flowRegion2987"><rect
           id="rect2989"
           width="748.57141"
           height="262.85715"
           x="225.71428"
           y="269.50504"
           style="font-size:200px" /></flowRegion><flowPara
         id="flowPara2991"
         style="font-size:200px;font-style:normal;font-variant:normal;font-weight:normal;font-stretch:normal;font-family:Ubuntu;-inkscape-font-specification:Ubuntu">Realize</flowPara></flowRoot>    <flowRoot
       xml:space="preserve"
       id="flowRoot2993"
       style="font-size:40px;font-style:normal;font-variant:normal;font-weight:bold;font-stretch:normal;line-height:125%;letter-spacing:0px;word-spacing:0px;fill:#000000;fill-opacity:1;stroke:none;font-family:Simpsonfont;-inkscape-font-specification:Simpsonfont Bold"><flowRegion
         id="flowRegion2995"><rect
           id="rect2997"
           width="188.57143"
           height="65.714287"
           x="374.28571"
           y="298.07648" /></flowRegion><flowPara
         id="flowPara2999"></flowPara></flowRoot>    <flowRoot
       xml:space="preserve"
       id="flowRoot3001"
       style="font-size:40px;font-style:normal;font-variant:normal;font-weight:bold;font-stretch:normal;line-height:125%;letter-spacing:0px;word-spacing:0px;fill:#000000;fill-opacity:1;stroke:none;font-family:Simpsonfont;-inkscape-font-specification:Simpsonfont Bold"><flowRegion
         id="flowRegion3003"><rect
           id="rect3005"
           width="1368.5714"
           height="71.428574"
           x="362.85715"
           y="298.07648" /></flowRegion><flowPara
         id="flowPara3007"></flowPara></flowRoot>    <path
       d="m 150.58286,818.93361 c -46.00334,0 -83.428583,37.42605 -83.428583,83.42858 0,46.00334 37.425243,83.42854 83.428583,83.42854 46.00335,0 83.42858,-37.4252 83.42858,-83.42854 0,-46.00253 -37.42523,-83.42858 -83.42858,-83.42858 z m 0,133.48571 c -27.60151,0 -50.05714,-22.45563 -50.05714,-50.05713 0,-27.60151 22.45563,-50.05716 50.05714,-50.05716 27.60151,0 50.05716,22.45565 50.05716,50.05716 0,27.6015 -22.45565,50.05713 -50.05716,50.05713 z M 63.215617,838.17558 35.964507,810.92281 59.560611,787.32588 86.878455,814.64372 c -9.041147,6.58419 -17.029434,14.52825 -23.662838,23.53186 z M 43.409674,919.04789 H 5 v -33.37143 h 38.409674 c -0.844297,5.44038 -1.283966,11.01259 -1.283966,16.68573 0,5.67397 0.439669,11.24534 1.283966,16.6857 z M 134.31429,795.1256 v -38.7634 h 33.37143 v 38.89606 c -5.57303,-0.88601 -11.28372,-1.3532 -17.10286,-1.3532 -5.5288,0 -10.96084,0.4188 -16.26857,1.22054 z m 80.45518,19.86935 27.66908,-27.66907 23.59777,23.59693 -27.73414,27.73499 c -6.58503,-9.04116 -14.52826,-17.03027 -23.53271,-23.66285 z M 86.879284,990.08148 59.561445,1017.3994 35.965341,993.80234 63.216451,966.55046 c 6.63257,9.00275 14.620857,16.94682 23.662833,23.53102 z m 80.806436,19.38462 v 38.8961 h -33.37143 v -38.7634 c 5.30773,0.8026 10.73977,1.2205 16.26857,1.2205 5.81914,0 11.52983,-0.4664 17.10286,-1.3532 z M 297,885.67646 v 33.37143 h -39.24395 c 0.84429,-5.44036 1.28396,-11.01173 1.28396,-16.6857 0,-5.67314 -0.43967,-11.24535 -1.28396,-16.68573 H 297 z m -58.69782,80.39009 27.73414,27.73504 -23.59777,23.59691 -27.66908,-27.66907 c 9.00361,-6.6326 16.94768,-14.62088 23.53271,-23.66288 z"
       id="brightness-4-icon"
       inkscape:connector-curvature="0"
       style="fill:#468966;fill-opacity:1" />
  </g>
</svg>
